# AST/ASF file generated using VICON BodyLanguage
# -----------------------------------------------
:version 1.10
:name VICON
:units
  mass 1.0
  length 0.45
  angle deg
:documentation
   .ast/.asf automatically generated from VICON data using
   VICON BodyBuilder and BodyLanguage model FoxedUp or BRILLIANT.MOD
:root
   order TX TY TZ RX RY RZ
   axis XYZ
   position 0 0 0  
   orientation 0 0 0 
:bonedata
  begin
     id 1 
     name lhipjoint
     direction 0.822369 -0.411937 0.392449 
     length 3.8167 
     axis 0 0 0  XYZ
  end
  begin
     id 2 
     name lfemur
     direction 0.34202 -0.939693 0  
     length 6.16791  
     axis 0 0 20  XYZ
    dof rx ry rz
    limits (-160.0 20.0)
           (-70.0 70.0)
           (-60.0 70.0)
  end
  begin
     id 3 
     name ltibia
     direction 0.34202 -0.939693 0   
     length 7.07101   
     axis 0 0 20   XYZ
    dof rx
    limits (-10.0 170.0)
  end
  begin
     id 4 
     name lfoot
     direction 0.028254 -0.0776273 0.996582   
     length 1.66799   
     axis -90 7.62852e-016 20   XYZ
    dof rx rz
    limits (-45.0 90.0)
           (-70.0 20.0)
  end
  begin
     id 5 
     name ltoes
     direction 1.53483e-011 -4.21688e-011 1   
     length 0.851674   
     axis -90 7.62852e-016 20   XYZ
    dof rx
    limits (-90.0 20.0)
  end
  begin
     id 6 
     name rhipjoint
     direction -0.822466 -0.411836 0.392353   
     length 3.81764  
     axis 0 0 0  XYZ 
  end
  begin
     id 7 
     name rfemur
     direction -0.34202 -0.939693 0   
     length 6.28636   
     axis 0 0 -20   XYZ
    dof rx ry rz
    limits (-160.0 20.0)
           (-70.0 70.0)
           (-70.0 60.0)
  end
  begin
     id 8 
     name rtibia
     direction -0.34202 -0.939693 0   
     length 6.85621   
     axis 0 0 -20   XYZ
    dof rx
    limits (-10.0 170.0)
 end
 begin
     id 9 
     name rfoot
     direction -0.0553036 -0.151945 0.98684   
     length 1.57293  
     axis -90 -7.62852e-016 -20   XYZ
    dof rx rz
    limits (-45.0 90.0)
           (-20.0 70.0)
  end
  begin
     id 10 
     name rtoes
     direction -1.53592e-011 -4.21964e-011 1   
     length 0.802812   
     axis -90 -7.62852e-016 -20   XYZ
    dof rx
    limits (-90.0 20.0)
  end
  begin
     id 11 
     name lowerback
     direction 0.00654913 0.996475 -0.0836396   
     length 1.97212   
     axis 0 0 0   XYZ
    dof rx ry rz
    limits (-20.0 45.0)
           (-30.0 30.0)
           (-30.0 30.0)
  end
  begin
     id 12 
     name upperback
     direction 0.0111875 0.994527 0.103877   
     length 1.89704   
     axis 0 0 0   XYZ
    dof rx ry rz
    limits (-20.0 45.0)
           (-30.0 30.0)
           (-30.0 30.0)
  end
  begin
     id 13 
     name thorax
     direction 0.00473652 0.989004 0.147814   
     length 1.94516   
     axis 0 0 0   XYZ
    dof rx ry rz
    limits (-20.0 45.0)
           (-30.0 30.0)
           (-30.0 30.0)
  end
  begin
     id 14 
     name lowerneck
     direction -0.00925808 0.999011 0.0434791   
     length 1.81771   
     axis 0 0 0   XYZ
    dof rx ry rz
    limits (-20.0 45.0)
           (-30.0 30.0)
           (-30.0 30.0)
  end
  begin
     id 15 
     name upperneck
     direction 0.00451595 0.964412 -0.264365   
     length 1.80434   
     axis 0 0 0   XYZ
    dof rx ry rz
    limits (-20.0 45.0)
           (-30.0 30.0)
           (-30.0 30.0)
  end
  begin
     id 16
     name head
     direction -0.00110849 0.995756 -0.0920241  
     length 1.84006  
     axis 0 0 0   XYZ
    dof rx ry rz
    limits (-20.0 45.0)
           (-30.0 30.0)
           (-30.0 30.0)
  end
  begin
     id 17 
     name lclavicle
     direction 0.921253 0.385213 0.0538957  
     length 3.67415  
     axis 0 0 0   XYZ
    dof ry rz
    limits (-20.0 10.0)
           (0.0 20.0)
  end
  begin
     id 18 
     name lhumerus
     direction 1 -4.48961e-011 6.73441e-028   
     length 4.32712   
     axis 180 -30 -90   XYZ
    dof rx ry rz
    limits (-60.0 90.0)
           (-90.0 90.0)
           (-90.0 90.0)
  end
  begin
     id 19
     name lradius
     direction 1 -4.48985e-011 -9.53507e-028   
     length 3.28587   
     axis 180 -30 -90   XYZ
    dof rx
    limits (-10.0 170.0)
  end
  begin
     id 20
     name lwrist
     direction 1 -4.48951e-011 -4.67472e-027   
     length 1.64293   
     axis 1.65735e-015 90 90   XYZ
    dof ry
    limits (-180.0 0.0)
 end
  begin
     id 21 
     name lhand
     direction 1 -4.48946e-011 -9.34945e-027   
     length 0.433158   
     axis 5.96574e-015 90 90   XYZ
    dof rx rz
    limits (-90.0 90.0)
           (-45.0 45.0)
  end
  begin
     id 22 
     name lfingers
     direction 1 -4.48882e-011 -1.86989e-026   
     length 0.349224   
     axis 1.19315e-014 90 90   XYZ
    dof rx
    limits (0.0 90.0)
  end
  begin
     id 23
     name lthumb
     direction 0.707107 -6.3493e-011 0.707107   
     length 0.501417   
     axis -90 45 2.85299e-015   XYZ
    dof rx rz
    limits (-45.0 45.0)
           (-45.0 45.0)
  end
  begin
     id 24 
     name rclavicle
     direction -0.884378 0.46502 -0.0403866   
     length 3.50218  
     axis 0 0 0   XYZ 
    dof ry rz
    limits (-10.0 20.0)
           (-20.0 0.0)
  end
  begin
     id 25 
     name rhumerus
     direction -1 -4.48964e-011 1.58188e-027  
     length 4.29104   
     axis 180 30 90   XYZ
    dof rx ry rz
    limits (-90.0 60.0)
           (-90.0 90.0)
           (-90.0 90.0)
  end
  begin
     id 26 
     name rradius
     direction -1 -4.48978e-011 -1.9722e-027   
     length 3.2272   
     axis 180 30 90   XYZ
    dof rx
    limits (-10.0 170.0)
  end
  begin
     id 27 
     name rwrist
     direction -1 -4.48969e-011 -4.67472e-027   
     length 1.6136   
     axis 1.65735e-015 -90 -90   XYZ
    dof ry
    limits (-180.0 0.0)
  end
  begin
     id 28
     name rhand
     direction -1 -4.48846e-011 -9.34945e-027   
     length 0.543623   
     axis 5.96574e-015 -90 -90   XYZ
    dof rx rz
    limits (-90.0 90.0)
           (-45.0 45.0)
  end
  begin
     id 29
     name rfingers
     direction -1 -4.49074e-011 -1.86989e-026   
     length 0.438283   
     axis 1.19315e-014 -90 -90   XYZ
    dof rx
    limits (0.0 90.0)
  end
  begin
     id 30
     name rthumb
     direction -0.707107 -6.34834e-011 0.707107   
     length 0.629289   
     axis -90 -45 -2.85299e-015   XYZ
    dof rx rz
    limits (-45.0 45.0)
           (-45.0 45.0)
  end
:hierarchy
  begin
    root lhipjoint rhipjoint lowerback
    lhipjoint lfemur
    lfemur ltibia
    ltibia lfoot
    lfoot ltoes
    rhipjoint rfemur
    rfemur rtibia
    rtibia rfoot
    rfoot rtoes
    lowerback upperback
    upperback thorax
    thorax lowerneck lclavicle rclavicle
    lowerneck upperneck
    upperneck head
    lclavicle lhumerus
    lhumerus lradius
    lradius lwrist
    lwrist lhand lthumb
    lhand lfingers
    rclavicle rhumerus
    rhumerus rradius
    rradius rwrist
    rwrist rhand rthumb
    rhand rfingers
  end

#!OML:ASF H:\GeneralSubjects\Female5\Project 1\Capture day 1\Session 1\Female5.ASF
:FULLY-SPECIFIED
:DEGREES
48
root -25.1632 15.5246 8.68954 -172.691 -3.32295 -167.473
lowerback 7.51854 4.0055 7.96407
upperback -8.7736 6.15638 1.25236
thorax -13.1681 1.97915 -4.10575
lowerneck -10.7598 9.38906 8.03073
upperneck 44.2073 6.70886 -0.265816
head 19.1248 2.07921 -0.954957
rclavicle 6.85807e-015 7.15625e-015
rhumerus -48.6166 14.5233 -81.6303
rradius 31.2809
rwrist -20.1217
rhand -18.6209 -21.8084
rfingers 7.12502
rthumb 7.67111 -51.6492
lclavicle 6.85807e-015 7.15625e-015
lhumerus -53.011 21.6192 43.7736
lradius 23.5147
lwrist -14.0739
lhand -23.7831 36.6804
lfingers 7.12502
lthumb 2.68683 66.6432
rfemur 5.74346 29.9653 45.3776
rtibia -15.3383
rfoot -35.1781 -33.4757
rtoes 20.0196
lfemur -32.0523 -2.92377 2.30435
ltibia 43.7694
lfoot -23.6848 20.0734
ltoes -65.2421
49
root -25.2167 15.5011 8.68134 -172.91 -2.64147 -167.259
lowerback 7.58942 4.09429 7.995
upperback -8.65138 6.29957 1.34984
thorax -13.0592 2.06222 -4.04099
lowerneck -11.0776 9.45356 8.36782
upperneck 44.1257 6.84966 -0.498902
head 19.2146 2.17718 -1.08221
rclavicle -2.06736e-014 -5.08889e-014
rhumerus -46.325 14.7274 -80.66
rradius 31.0405
rwrist -19.794
rhand -17.8028 -21.9715
rfingers 7.12502
rthumb 8.46065 -51.782
lclavicle -2.06736e-014 -5.08889e-014
lhumerus -50.2153 19.9647 47.6106
lradius 25.8677
lwrist -6.56494
lhand -23.0354 37.5741
lfingers 7.12502
lthumb 3.40896 67.5266
rfemur 6.20862 30.3064 45.5546
rtibia -15.3987
rfoot -35.1067 -33.1459
rtoes 20.8502
lfemur -30.8707 -1.52281 2.36443
ltibia 45.3079
lfoot -22.5068 18.6999
ltoes -66.391
50
root -25.2775 15.4851 8.67016 -173.144 -2.00756 -167.115
lowerback 7.64984 4.16061 7.98414
upperback -8.53313 6.40528 1.46201
thorax -12.9593 2.13108 -3.93065
lowerneck -11.2144 9.52958 8.63101
upperneck 43.8876 7.05737 -0.688341
head 19.146 2.30465 -1.16316
rclavicle 5.75482e-014 -1.35174e-014
rhumerus -44.0201 14.437 -79.2479
rradius 31.3901
rwrist -19.6481
rhand -17.2262 -22.0028
rfingers 7.12502
rthumb 9.01711 -51.7901
lclavicle 5.75482e-014 -1.35174e-014
lhumerus -47.6663 18.2603 51.2286
lradius 29.0163
lwrist 0.818102
lhand -21.7257 38.6391
lfingers 7.12502
lthumb 4.67368 68.5675
rfemur 6.69089 30.5864 45.6629
rtibia -15.4292
rfoot -35.0731 -32.8414
rtoes 21.4396
lfemur -29.5543 -0.671751 2.41868
ltibia 46.5037
lfoot -21.422 16.9186
ltoes -67.6849
51
root -25.345 15.4784 8.65674 -173.385 -1.43732 -167.031
lowerback 7.72212 4.19605 8.00236
upperback -8.45789 6.47127 1.57045
thorax -12.9196 2.17099 -3.83615
lowerneck -11.1592 9.62084 8.80467
upperneck 43.6024 7.29346 -0.811342
head 18.9846 2.43404 -1.1972
rclavicle 2.15681e-014 -2.70347e-014
rhumerus -41.8869 13.6573 -77.5477
rradius 32.4792
rwrist -19.6891
rhand -17.1148 -21.9322
rfingers 7.12502
rthumb 9.12461 -51.7148
lclavicle 2.15681e-014 -2.70347e-014
lhumerus -45.4363 16.6849 54.3478
lradius 32.844
lwrist 7.17931
lhand -20.263 39.7038
lfingers 7.12502
lthumb 6.08588 69.5964
rfemur 7.17699 30.7998 45.7197
rtibia -15.4313
rfoot -35.0419 -32.6061
rtoes 21.8408
lfemur -28.0441 -0.440076 2.46131
ltibia 47.0281
lfoot -20.7484 14.966
ltoes -68.9057
52
root -25.4183 15.4819 8.64168 -173.62 -0.944522 -167.017
lowerback 7.81402 4.19753 8.0757
upperback -8.45019 6.4961 1.65558
thorax -12.9688 2.17478 -3.79402
lowerneck -10.9909 9.69144 8.84824
upperneck 43.3968 7.45792 -0.838725
head 18.8227 2.51123 -1.18662
rclavicle 3.80673e-014 -1.74931e-014
rhumerus -40.1021 12.5388 -75.7455
rradius 34.4481
rwrist -19.9389
rhand -17.4085 -21.8238
rfingers 7.12502
rthumb 8.84113 -51.6186
lclavicle 3.80673e-014 -1.74931e-014
lhumerus -43.497 15.2462 56.9325
lradius 37.2027
lwrist 12.1416
lhand -19.232 40.6091
lfingers 7.12502
lthumb 7.0812 70.4706
rfemur 7.64385 30.947 45.7361
rtibia -15.3881
rfoot -35.0127 -32.4799
rtoes 22.023
lfemur -26.3168 -0.867576 2.44874
ltibia 46.6358
lfoot -20.5931 13.2335
ltoes -70.0037
53
root -25.4966 15.495 8.62523 -173.819 -0.537327 -167.098
lowerback 7.88904 3.39001 8.03746
upperback -8.4744 6.64956 1.80522
thorax -13.1335 2.76807 -3.77917
lowerneck -10.9748 9.66395 8.74756
upperneck 43.4837 7.37006 -0.779095
head 18.8548 2.44527 -1.16681
rclavicle -1.64991e-014 -1.27222e-014
rhumerus -38.7126 11.3339 -73.9902
rradius 37.313
rwrist -20.4886
rhand -18.045 -21.7215
rfingers 7.12502
rthumb 8.22693 -51.5413
lclavicle -1.64991e-014 -1.27222e-014
lhumerus -41.768 13.9619 58.9934
lradius 41.8984
lwrist 15.5492
lhand -18.9443 40.8592
lfingers 7.12502
lthumb 7.35888 70.7112
rfemur 8.03673 31.0398 45.6987
rtibia -15.2461
rfoot -34.9885 -32.4751
rtoes 21.9045
lfemur -24.4171 -1.92733 2.29504
ltibia 45.2766
lfoot -21.2998 11.3556
ltoes -70.3767
54
root -25.5804 15.5169 8.6072 -173.968 -0.226031 -167.308
lowerback 7.94165 3.30993 8.07316
upperback -8.59445 6.58256 1.81909
thorax -13.3175 2.72757 -3.78506
lowerneck -11.1077 9.52301 8.45349
upperneck 43.8023 7.0128 -0.578742
head 19.0341 2.23364 -1.10455
rclavicle -1.45113e-014 8.74653e-015
rhumerus -37.6933 10.2273 -72.3331
rradius 40.9809
rwrist -21.2833
rhand -18.8756 -21.6367
rfingers 7.12502
rthumb 7.42527 -51.4864
lclavicle -1.45113e-014 8.74653e-015
lhumerus -40.2146 12.7674 60.5951
lradius 46.8349
lwrist 17.6848
lhand -19.6454 40.4425
lfingers 7.12502
lthumb 6.68213 70.3171
rfemur 8.31726 31.0733 45.5611
rtibia -14.962
rfoot -35.0001 -32.5339
rtoes 21.5786
lfemur -22.4092 -3.55524 1.88071
ltibia 43.0714
lfoot -22.2856 10.2096
ltoes -70.5965
55
root -25.6694 15.5468 8.58736 -174.053 0.00529811 -167.684
lowerback 7.92954 3.21369 7.94596
upperback -8.73006 6.45812 1.79201
thorax -13.4947 2.67329 -3.7318
lowerneck -11.4685 9.27319 8.0696
upperneck 44.264 6.43691 -0.34231
head 19.3551 1.91345 -1.05097
rclavicle 8.94531e-015 2.70347e-014
rhumerus -36.8741 9.23283 -70.734
rradius 45.2778
rwrist -22.1378
rhand -19.718 -21.5498
rfingers 7.12502
rthumb 6.61208 -51.4266
lclavicle 8.94531e-015 2.70347e-014
lhumerus -38.7338 11.6915 61.7778
lradius 51.9739
lwrist 19.0161
lhand -20.842 39.489
lfingers 7.12502
lthumb 5.52691 69.3969
rfemur 8.44028 31.0626 45.2508
rtibia -14.4952
rfoot -35.0556 -32.5978
rtoes 21.1966
lfemur -20.3613 -5.58557 1.09871
ltibia 40.2633
lfoot -23.4146 9.85296
ltoes -70.6503
56
root -25.7632 15.5837 8.56575 -174.066 0.185308 -168.252
lowerback 7.82648 3.11992 7.59409
upperback -8.85125 6.28025 1.71603
thorax -13.6143 2.61464 -3.59058
lowerneck -11.9936 8.95649 7.68257
upperneck 44.73 5.76912 -0.157038
head 19.7382 1.5541 -1.03665
rclavicle -2.24627e-014 -7.95139e-016
rhumerus -36.1205 8.3051 -69.159
rradius 50.0169
rwrist -22.8395
rhand -20.4487 -21.4351
rfingers 7.12502
rthumb 5.90666 -51.3327
lclavicle -2.24627e-014 -7.95139e-016
lhumerus -37.2782 10.736 62.5824
lradius 57.2711
lwrist 19.9571
lhand -22.0069 38.3088
lfingers 7.12502
lthumb 4.4021 68.243
rfemur 8.35796 31.0275 44.6816
rtibia -13.8147
rfoot -35.1268 -32.6364
rtoes 20.8232
lfemur -18.3347 -7.79966 -0.108164
ltibia 37.1234
lfoot -24.5003 10.2016
ltoes -70.4722
57
root -25.8607 15.6271 8.54286 -174.014 0.35807 -169.007
lowerback 7.6574 3.05244 7.04384
upperback -8.9535 6.08294 1.56414
thorax -13.6756 2.56243 -3.41285
lowerneck -12.5292 8.63649 7.36604
upperneck 45.0446 5.16393 -0.0528243
head 20.048 1.24093 -1.05724
rclavicle -2.13694e-014 -1.03368e-014
rhumerus -35.4151 7.3313 -67.602
rradius 55.0541
rwrist -23.2484
rhand -21.0477 -21.2753
rfingers 7.12502
rthumb 5.32826 -51.1883
lclavicle -2.13694e-014 -1.03368e-014
lhumerus -35.8256 9.88039 63.017
lradius 62.7255
lwrist 20.7532
lhand -22.8429 37.3565
lfingers 7.12502
lthumb 3.59482 67.306
rfemur 8.02611 30.9954 43.7962
rtibia -12.8772
rfoot -35.2209 -32.6256
rtoes 20.4664
lfemur -16.3478 -10.0075 -1.71973
ltibia 33.8871
lfoot -25.3558 11.089
ltoes -70.1146
58
root -25.9608 15.6764 8.51974 -173.926 0.557592 -169.929
lowerback 7.4802 3.02263 6.33793
upperback -9.03281 5.89445 1.33172
thorax -13.7035 2.52356 -3.23645
lowerneck -12.9676 8.36727 7.15495
upperneck 45.1211 4.74296 -0.0346713
head 20.1911 1.03504 -1.09373
rclavicle -4.46272e-014 -2.78299e-014
rhumerus -34.785 6.25105 -66.0788
rradius 60.3465
rwrist -23.3593
rhand -21.5466 -21.1363
rfingers 7.12502
rthumb 4.84657 -51.0609
lclavicle -4.46272e-014 -2.78299e-014
lhumerus -34.3775 9.12325 63.1201
lradius 68.3004
lwrist 21.5556
lhand -23.4268 36.8338
lfingers 7.12502
lthumb 3.0309 66.792
rfemur 7.41295 30.9755 42.5632
rtibia -11.6401
rfoot -35.3593 -32.547
rtoes 20.0731
lfemur -14.3891 -12.1098 -3.66909
ltibia 30.6402
lfoot -25.8839 12.3183
ltoes -69.6231
59
root -26.0627 15.7307 8.49737 -173.828 0.80157 -170.981
lowerback 7.34257 3.01888 5.52553
upperback -9.08993 5.71662 1.03816
thorax -13.7285 2.49445 -3.07134
lowerneck -13.2042 8.19625 7.0565
upperneck 44.9105 4.60535 -0.108708
head 20.0994 0.976318 -1.12792
rclavicle 8.64713e-015 7.95139e-016
rhumerus -34.2884 5.13349 -64.6199
rradius 65.9075
rwrist -23.3735
rhand -22.0989 -21.0124
rfingers 7.12502
rthumb 4.31324 -50.9485
lclavicle 8.64713e-015 7.95139e-016
lhumerus -32.9758 8.52607 62.9136
lradius 73.9608
lwrist 22.3238
lhand -23.8848 36.5454
lfingers 7.12502
lthumb 2.58864 66.5095
rfemur 6.49809 30.9591 40.964
rtibia -10.0876
rfoot -35.5424 -32.3493
rtoes 19.7209
lfemur -12.4391 -14.0569 -5.85874
ltibia 27.4117
lfoot -26.0678 13.7257
ltoes -69.0562
60
root -26.1651 15.7884 8.4764 -173.743 1.08846 -172.122
lowerback 7.25705 3.03509 4.6121
upperback -9.11117 5.54662 0.714834
thorax -13.7471 2.47595 -2.88572
lowerneck -13.2488 8.13411 7.09944
upperneck 44.4229 4.76204 -0.3023
head 19.7914 1.06864 -1.17505
rclavicle 2.68359e-015 9.54166e-015
rhumerus -33.9241 3.99405 -63.1886
rradius 71.7152
rwrist -23.3745
rhand -22.6055 -20.8634
rfingers 7.12502
rthumb 3.82409 -50.8088
lclavicle 2.68359e-015 9.54166e-015
lhumerus -31.6031 8.13142 62.449
lradius 79.6473
lwrist 22.983
lhand -24.3737 36.4076
lfingers 7.12502
lthumb 2.11641 66.3769
rfemur 5.27393 30.9215 39.0018
rtibia -8.2329
rfoot -35.7351 -31.995
rtoes 19.5183
lfemur -10.478 -15.8385 -8.18477
ltibia 24.1897
lfoot -25.9759 15.1988
ltoes -68.4845
61
root -26.2681 15.8471 8.45745 -173.672 1.40406 -173.304
lowerback 7.2199 3.06645 3.65628
upperback -9.10184 5.38951 0.369279
thorax -13.7603 2.46598 -2.70449
lowerneck -13.2272 8.11841 7.26167
upperneck 43.8023 5.04044 -0.59368
head 19.404 1.22958 -1.26016
rclavicle -4.77083e-015 2.0276e-014
rhumerus -33.6664 2.77168 -61.7489
rradius 77.6487
rwrist -23.3192
rhand -22.8398 -20.488
rfingers 7.12502
rthumb 3.59779 -50.4373
lclavicle -4.77083e-015 2.0276e-014
lhumerus -30.2295 7.938 61.7523
lradius 85.2912
lwrist 23.4729
lhand -24.8748 36.2013
lfingers 7.12502
lthumb 1.63245 66.1748
rfemur 3.56232 30.8364 36.6706
rtibia -5.92014
rfoot -35.594 -31.8374
rtoes 18.2386
lfemur -8.49898 -17.4825 -10.5585
ltibia 20.9681
lfoot -25.6462 16.8072
ltoes -68.0832
62
root -26.3725 15.904 8.44075 -173.606 1.72344 -174.463
lowerback 7.21864 3.0986 2.74282
upperback -9.07743 5.24342 0.0179688
thorax -13.7746 2.45759 -2.55626
lowerneck -13.1587 8.13 7.53134
upperneck 43.1034 5.36861 -0.948808
head 18.981 1.426 -1.38099
rclavicle -3.17062e-014 6.36111e-015
rhumerus -33.4907 1.50907 -60.2989
rradius 83.6527
rwrist -23.3931
rhand -22.9971 -19.9217
rfingers 7.12502
rthumb 3.44594 -49.8736
lclavicle -3.17062e-014 6.36111e-015
lhumerus -28.8521 7.94398 60.8376
lradius 90.8493
lwrist 23.8754
lhand -25.4587 36.0213
lfingers 7.12502
lthumb 1.06856 65.9984
rfemur 1.33927 26.0798 33.8966
rtibia -3.69876
rfoot -31.9143 -28.2733
rtoes 15.7073
lfemur -6.50074 -19.0508 -12.8987
ltibia 17.7335
lfoot -25.2975 18.3385
ltoes -67.6851
